<?xml version="1.0" encoding="utf-8"?>
<svg viewBox="0 0 500 500" xmlns="http://www.w3.org/2000/svg">
  <defs>
    <clipPath id="clip0_42_120">
      <rect width="200" height="200" fill="white"/>
    </clipPath>
  </defs>
  <path d="M 150.901 271.463 L 286.802 271.423 L 286.832 370.899 C 286.836 384.706 275.646 395.902 261.839 395.906 L 175.938 395.932 C 162.131 395.936 150.935 384.746 150.93 370.939 L 150.901 271.463 Z" fill="#594245"/>
  <ellipse cx="218.87" cy="272.533" rx="67.969" ry="19.376" fill="#301616"/>
  <g clip-path="url(#clip0_42_120)" transform="matrix(0.983945, 0, 0, 0.983945, 120.319023, 86.796555)" style="">
    <path d="M166.667 22.2222C160.773 22.2222 155.121 24.5635 150.953 28.731C146.786 32.8984 144.444 38.5507 144.444 44.4444V95.1389C144.444 101.172 139.517 106.028 133.333 108.739V33.3333C133.333 24.4928 129.821 16.0143 123.57 9.76311C117.319 3.51189 108.841 0 100 0C91.1594 0 82.681 3.51189 76.4297 9.76311C70.1785 16.0143 66.6666 24.4928 66.6666 33.3333V131.272C60.4333 128.633 55.5555 123.656 55.5555 117.361V88.8889C55.5555 82.9952 53.2143 77.3429 49.0468 73.1754C44.8793 69.0079 39.227 66.6667 33.3333 66.6667C27.4396 66.6667 21.7873 69.0079 17.6198 73.1754C13.4523 77.3429 11.1111 82.9952 11.1111 88.8889V127.778C11.1111 140.05 20.8333 149.306 29.8611 154.511C36.7722 158.5 56.1444 163.4 66.6666 163.683V183.333C66.6666 201.739 133.333 201.739 133.333 183.333V141.394C144.339 140.733 162.728 136.1 169.328 132.289C178.356 127.083 188.889 117.828 188.889 105.556V44.4444C188.889 38.5507 186.548 32.8984 182.38 28.731C178.213 24.5635 172.56 22.2222 166.667 22.2222Z" fill="#77B255"/>
    <path d="M66.6666 38.8889C69.7349 38.8889 72.2222 36.4016 72.2222 33.3333C72.2222 30.2651 69.7349 27.7778 66.6666 27.7778C63.5984 27.7778 61.1111 30.2651 61.1111 33.3333C61.1111 36.4016 63.5984 38.8889 66.6666 38.8889Z" fill="#3E721D"/>
    <path d="M127.778 22.2222C130.846 22.2222 133.333 19.7349 133.333 16.6667C133.333 13.5984 130.846 11.1111 127.778 11.1111C124.71 11.1111 122.222 13.5984 122.222 16.6667C122.222 19.7349 124.71 22.2222 127.778 22.2222Z" fill="#3E721D"/>
    <path d="M116.667 55.5556C119.735 55.5556 122.222 53.0683 122.222 50C122.222 46.9318 119.735 44.4444 116.667 44.4444C113.598 44.4444 111.111 46.9318 111.111 50C111.111 53.0683 113.598 55.5556 116.667 55.5556Z" fill="#3E721D"/>
    <path d="M77.7778 94.4444C80.846 94.4444 83.3333 91.9571 83.3333 88.8889C83.3333 85.8206 80.846 83.3333 77.7778 83.3333C74.7095 83.3333 72.2222 85.8206 72.2222 88.8889C72.2222 91.9571 74.7095 94.4444 77.7778 94.4444Z" fill="#3E721D"/>
    <path d="M111.111 116.667C114.179 116.667 116.667 114.179 116.667 111.111C116.667 108.043 114.179 105.556 111.111 105.556C108.043 105.556 105.556 108.043 105.556 111.111C105.556 114.179 108.043 116.667 111.111 116.667Z" fill="#3E721D"/>
    <path d="M72.2222 150C75.2904 150 77.7777 147.513 77.7777 144.444C77.7777 141.376 75.2904 138.889 72.2222 138.889C69.1539 138.889 66.6666 141.376 66.6666 144.444C66.6666 147.513 69.1539 150 72.2222 150Z" fill="#3E721D"/>
    <path d="M27.7778 155.556C30.846 155.556 33.3333 153.068 33.3333 150C33.3333 146.932 30.846 144.444 27.7778 144.444C24.7095 144.444 22.2222 146.932 22.2222 150C22.2222 153.068 24.7095 155.556 27.7778 155.556Z" fill="#3E721D"/>
    <path d="M50 116.667C53.0683 116.667 55.5556 114.179 55.5556 111.111C55.5556 108.043 53.0683 105.556 50 105.556C46.9318 105.556 44.4445 108.043 44.4445 111.111C44.4445 114.179 46.9318 116.667 50 116.667Z" fill="#3E721D"/>
    <path d="M11.1111 105.556C14.1793 105.556 16.6667 103.068 16.6667 100C16.6667 96.9317 14.1793 94.4444 11.1111 94.4444C8.04285 94.4444 5.55554 96.9317 5.55554 100C5.55554 103.068 8.04285 105.556 11.1111 105.556Z" fill="#3E721D"/>
    <path d="M188.889 50C191.957 50 194.444 47.5127 194.444 44.4444C194.444 41.3762 191.957 38.8889 188.889 38.8889C185.821 38.8889 183.333 41.3762 183.333 44.4444C183.333 47.5127 185.821 50 188.889 50Z" fill="#3E721D"/>
    <path d="M155.556 66.6667C158.624 66.6667 161.111 64.1794 161.111 61.1111C161.111 58.0429 158.624 55.5556 155.556 55.5556C152.487 55.5556 150 58.0429 150 61.1111C150 64.1794 152.487 66.6667 155.556 66.6667Z" fill="#3E721D"/>
    <path d="M177.778 94.4444C180.846 94.4444 183.333 91.9571 183.333 88.8889C183.333 85.8206 180.846 83.3333 177.778 83.3333C174.709 83.3333 172.222 85.8206 172.222 88.8889C172.222 91.9571 174.709 94.4444 177.778 94.4444Z" fill="#3E721D"/>
    <path d="M161.111 138.889C164.179 138.889 166.667 136.402 166.667 133.333C166.667 130.265 164.179 127.778 161.111 127.778C158.043 127.778 155.556 130.265 155.556 133.333C155.556 136.402 158.043 138.889 161.111 138.889Z" fill="#3E721D"/>
    <path d="M122.222 172.222C125.29 172.222 127.778 169.735 127.778 166.667C127.778 163.598 125.29 161.111 122.222 161.111C119.154 161.111 116.667 163.598 116.667 166.667C116.667 169.735 119.154 172.222 122.222 172.222Z" fill="#3E721D"/>
  </g>
</svg>