<?xml version="1.0" encoding="utf-8"?>
<svg viewBox="0 0 500 500" xmlns="http://www.w3.org/2000/svg">
  <defs>
    <clipPath id="clip-1">
      <rect width="200" height="200" fill="white"/>
    </clipPath>
    <clipPath id="clip-2">
      <rect width="200" height="200" fill="white"/>
    </clipPath>
  </defs>
  <path d="M 310.338 338.137 L 446.239 338.097 L 446.269 437.573 C 446.273 451.38 435.083 462.576 421.276 462.58 L 335.375 462.606 C 321.568 462.61 310.372 451.42 310.367 437.613 L 310.338 338.137 Z" fill="#594245"/>
  <ellipse cx="378.307" cy="339.207" rx="67.969" ry="19.376" fill="#301616"/>
  <g clip-path="url(#clip-1)" transform="matrix(0.886532, 0, 0, 0.886532, 288.912018, 70.139389)" style="">
    <path d="M 166.667 174.915 C 160.773 174.915 155.121 172.574 150.953 168.406 C 146.786 164.239 144.444 158.587 144.444 152.693 L 144.444 101.999 C 144.444 95.965 139.517 91.109 133.333 88.398 L 133.333 163.804 C 133.333 172.645 129.821 181.123 123.57 187.374 C 117.319 193.626 108.841 197.137 100 197.137 C 91.159 197.137 82.681 193.626 76.43 187.374 C 70.178 181.123 66.667 172.645 66.667 163.804 L 66.667 65.865 C 60.433 68.504 51.597 74.174 51.597 80.469 L 52.088 108.249 C 52.088 114.142 53.214 119.795 49.047 123.962 C 44.879 128.13 39.227 136.493 33.333 136.493 C 27.44 136.493 20.834 131.175 16.667 127.007 C 12.499 122.84 11.111 114.142 11.111 108.249 L 16.667 69.358 C 16.667 57.086 18.75 55.86 27.778 50.655 C 34.689 46.666 56.144 33.737 66.667 33.454 L 66.667 13.804 C 66.667 -4.602 133.333 -4.602 133.333 13.804 L 133.333 55.743 C 144.339 56.404 162.728 61.037 169.328 64.848 C 178.356 70.054 188.889 79.309 188.889 91.581 L 188.889 152.693 C 188.889 158.587 186.548 164.239 182.38 168.406 C 178.213 172.574 172.56 174.915 166.667 174.915 Z" fill="#77B255" transform="matrix(-1, 0, 0, -1, 200.000015, 197.136496)"/>
    <path d="M66.6666 38.8889C69.7349 38.8889 72.2222 36.4016 72.2222 33.3333C72.2222 30.2651 69.7349 27.7778 66.6666 27.7778C63.5984 27.7778 61.1111 30.2651 61.1111 33.3333C61.1111 36.4016 63.5984 38.8889 66.6666 38.8889Z" fill="#3E721D"/>
    <path d="M127.778 22.2222C130.846 22.2222 133.333 19.7349 133.333 16.6667C133.333 13.5984 130.846 11.1111 127.778 11.1111C124.71 11.1111 122.222 13.5984 122.222 16.6667C122.222 19.7349 124.71 22.2222 127.778 22.2222Z" fill="#3E721D"/>
    <path d="M116.667 55.5556C119.735 55.5556 122.222 53.0683 122.222 50C122.222 46.9318 119.735 44.4444 116.667 44.4444C113.598 44.4444 111.111 46.9318 111.111 50C111.111 53.0683 113.598 55.5556 116.667 55.5556Z" fill="#3E721D"/>
    <path d="M77.7778 94.4444C80.846 94.4444 83.3333 91.9571 83.3333 88.8889C83.3333 85.8206 80.846 83.3333 77.7778 83.3333C74.7095 83.3333 72.2222 85.8206 72.2222 88.8889C72.2222 91.9571 74.7095 94.4444 77.7778 94.4444Z" fill="#3E721D"/>
    <path d="M111.111 116.667C114.179 116.667 116.667 114.179 116.667 111.111C116.667 108.043 114.179 105.556 111.111 105.556C108.043 105.556 105.556 108.043 105.556 111.111C105.556 114.179 108.043 116.667 111.111 116.667Z" fill="#3E721D"/>
    <path d="M50 116.667C53.0683 116.667 55.5556 114.179 55.5556 111.111C55.5556 108.043 53.0683 105.556 50 105.556C46.9318 105.556 44.4445 108.043 44.4445 111.111C44.4445 114.179 46.9318 116.667 50 116.667Z" fill="#3E721D"/>
    <path d="M11.1111 105.556C14.1793 105.556 16.6667 103.068 16.6667 100C16.6667 96.9317 14.1793 94.4444 11.1111 94.4444C8.04285 94.4444 5.55554 96.9317 5.55554 100C5.55554 103.068 8.04285 105.556 11.1111 105.556Z" fill="#3E721D"/>
    <path d="M177.778 94.4444C180.846 94.4444 183.333 91.9571 183.333 88.8889C183.333 85.8206 180.846 83.3333 177.778 83.3333C174.709 83.3333 172.222 85.8206 172.222 88.8889C172.222 91.9571 174.709 94.4444 177.778 94.4444Z" fill="#3E721D"/>
    <path d="M161.111 138.889C164.179 138.889 166.667 136.402 166.667 133.333C166.667 130.265 164.179 127.778 161.111 127.778C158.043 127.778 155.556 130.265 155.556 133.333C155.556 136.402 158.043 138.889 161.111 138.889Z" fill="#3E721D"/>
    <path d="M122.222 172.222C125.29 172.222 127.778 169.735 127.778 166.667C127.778 163.598 125.29 161.111 122.222 161.111C119.154 161.111 116.667 163.598 116.667 166.667C116.667 169.735 119.154 172.222 122.222 172.222Z" fill="#3E721D"/>
  </g>
  <g clip-path="url(#clip-2)" transform="matrix(0.886532, 0, 0, 0.886532, 288.912018, 183.814301)" style="">
    <path d="M 166.667 38.889 C 160.773 38.889 155.121 41.23 150.953 45.398 C 146.786 49.565 144.444 55.217 144.444 61.111 L 144.444 95.139 C 144.444 101.172 139.517 106.028 133.333 108.739 L 133.333 33.333 C 133.333 24.493 129.821 16.014 123.57 9.763 C 117.319 3.512 108.841 0 100 0 C 91.159 0 82.681 3.512 76.43 9.763 C 70.179 16.014 66.667 24.493 66.667 33.333 L 66.667 131.272 C 60.433 128.633 55.556 123.656 55.556 117.361 L 55.556 88.889 C 55.556 82.995 53.214 77.343 49.047 73.175 C 44.879 69.008 39.227 66.667 33.333 66.667 C 27.44 66.667 21.787 69.008 17.62 73.175 C 13.452 77.343 11.111 82.995 11.111 88.889 L 11.111 127.778 C 11.111 140.05 20.833 149.306 29.861 154.511 C 36.772 158.5 56.144 163.4 66.667 163.683 L 66.667 183.333 C 66.667 201.739 133.333 201.739 133.333 183.333 L 133.333 141.394 C 144.339 140.733 162.728 136.1 169.328 132.289 C 178.356 127.083 188.889 117.828 188.889 105.556 L 188.889 61.111 C 188.889 55.217 186.548 49.565 182.38 45.398 C 178.213 41.23 172.56 38.889 166.667 38.889 Z" fill="#77B255"/>
    <path d="M66.6666 38.8889C69.7349 38.8889 72.2222 36.4016 72.2222 33.3333C72.2222 30.2651 69.7349 27.7778 66.6666 27.7778C63.5984 27.7778 61.1111 30.2651 61.1111 33.3333C61.1111 36.4016 63.5984 38.8889 66.6666 38.8889Z" fill="#3E721D"/>
    <path d="M127.778 22.2222C130.846 22.2222 133.333 19.7349 133.333 16.6667C133.333 13.5984 130.846 11.1111 127.778 11.1111C124.71 11.1111 122.222 13.5984 122.222 16.6667C122.222 19.7349 124.71 22.2222 127.778 22.2222Z" fill="#3E721D"/>
    <path d="M116.667 55.5556C119.735 55.5556 122.222 53.0683 122.222 50C122.222 46.9318 119.735 44.4444 116.667 44.4444C113.598 44.4444 111.111 46.9318 111.111 50C111.111 53.0683 113.598 55.5556 116.667 55.5556Z" fill="#3E721D"/>
    <path d="M77.7778 94.4444C80.846 94.4444 83.3333 91.9571 83.3333 88.8889C83.3333 85.8206 80.846 83.3333 77.7778 83.3333C74.7095 83.3333 72.2222 85.8206 72.2222 88.8889C72.2222 91.9571 74.7095 94.4444 77.7778 94.4444Z" fill="#3E721D"/>
    <path d="M111.111 116.667C114.179 116.667 116.667 114.179 116.667 111.111C116.667 108.043 114.179 105.556 111.111 105.556C108.043 105.556 105.556 108.043 105.556 111.111C105.556 114.179 108.043 116.667 111.111 116.667Z" fill="#3E721D"/>
    <path d="M72.2222 150C75.2904 150 77.7777 147.513 77.7777 144.444C77.7777 141.376 75.2904 138.889 72.2222 138.889C69.1539 138.889 66.6666 141.376 66.6666 144.444C66.6666 147.513 69.1539 150 72.2222 150Z" fill="#3E721D"/>
    <path d="M27.7778 155.556C30.846 155.556 33.3333 153.068 33.3333 150C33.3333 146.932 30.846 144.444 27.7778 144.444C24.7095 144.444 22.2222 146.932 22.2222 150C22.2222 153.068 24.7095 155.556 27.7778 155.556Z" fill="#3E721D"/>
    <path d="M50 116.667C53.0683 116.667 55.5556 114.179 55.5556 111.111C55.5556 108.043 53.0683 105.556 50 105.556C46.9318 105.556 44.4445 108.043 44.4445 111.111C44.4445 114.179 46.9318 116.667 50 116.667Z" fill="#3E721D"/>
    <path d="M11.1111 105.556C14.1793 105.556 16.6667 103.068 16.6667 100C16.6667 96.9317 14.1793 94.4444 11.1111 94.4444C8.04285 94.4444 5.55554 96.9317 5.55554 100C5.55554 103.068 8.04285 105.556 11.1111 105.556Z" fill="#3E721D"/>
    <path d="M155.556 66.6667C158.624 66.6667 161.111 64.1794 161.111 61.1111C161.111 58.0429 158.624 55.5556 155.556 55.5556C152.487 55.5556 150 58.0429 150 61.1111C150 64.1794 152.487 66.6667 155.556 66.6667Z" fill="#3E721D"/>
    <path d="M177.778 94.4444C180.846 94.4444 183.333 91.9571 183.333 88.8889C183.333 85.8206 180.846 83.3333 177.778 83.3333C174.709 83.3333 172.222 85.8206 172.222 88.8889C172.222 91.9571 174.709 94.4444 177.778 94.4444Z" fill="#3E721D"/>
    <path d="M161.111 138.889C164.179 138.889 166.667 136.402 166.667 133.333C166.667 130.265 164.179 127.778 161.111 127.778C158.043 127.778 155.556 130.265 155.556 133.333C155.556 136.402 158.043 138.889 161.111 138.889Z" fill="#3E721D"/>
    <path d="M122.222 172.222C125.29 172.222 127.778 169.735 127.778 166.667C127.778 163.598 125.29 161.111 122.222 161.111C119.154 161.111 116.667 163.598 116.667 166.667C116.667 169.735 119.154 172.222 122.222 172.222Z" fill="#3E721D"/>
  </g>
</svg>