<?xml version="1.0" encoding="utf-8"?>
<svg viewBox="0 0 500 500" xmlns="http://www.w3.org/2000/svg">
  <defs>
    <clipPath id="clip-1">
      <rect width="200" height="200" fill="white"/>
    </clipPath>
    <clipPath id="clip-2">
      <rect width="200" height="200" fill="white"/>
    </clipPath>
  </defs>
  <path d="M 310.338 338.137 L 446.239 338.097 L 446.269 437.573 C 446.273 451.38 435.083 462.576 421.276 462.58 L 335.375 462.606 C 321.568 462.61 310.372 451.42 310.367 437.613 L 310.338 338.137 Z" fill="#594245"/>
  <ellipse cx="378.307" cy="339.207" rx="67.969" ry="19.376" fill="#301616"/>
  <g clip-path="url(#clip-1)" transform="matrix(0.886532, 0, 0, 0.886532, 288.912018, 70.139389)" style="">
    <path d="M 166.667 174.915 C 160.773 174.915 155.121 172.574 150.953 168.406 C 146.786 164.239 144.444 158.587 144.444 152.693 L 144.444 101.999 C 144.444 95.965 139.517 91.109 133.333 88.398 L 133.333 163.804 C 133.333 172.645 129.821 181.123 123.57 187.374 C 117.319 193.626 108.841 197.137 100 197.137 C 91.159 197.137 82.681 193.626 76.43 187.374 C 70.178 181.123 66.667 172.645 66.667 163.804 L 66.667 65.865 C 60.433 68.504 51.597 74.174 51.597 80.469 L 52.088 108.249 C 52.088 114.142 53.214 119.795 49.047 123.962 C 44.879 128.13 39.227 136.493 33.333 136.493 C 27.44 136.493 20.834 131.175 16.667 127.007 C 12.499 122.84 11.111 114.142 11.111 108.249 L 16.667 69.358 C 16.667 57.086 18.75 55.86 27.778 50.655 C 34.689 46.666 56.144 33.737 66.667 33.454 L 66.667 13.804 C 66.667 -4.602 133.333 -4.602 133.333 13.804 L 133.333 55.743 C 144.339 56.404 162.728 61.037 169.328 64.848 C 178.356 70.054 188.889 79.309 188.889 91.581 L 188.889 152.693 C 188.889 158.587 186.548 164.239 182.38 168.406 C 178.213 172.574 172.56 174.915 166.667 174.915 Z" fill="#77B255" transform="matrix(-1, 0, 0, -1, 200.000015, 197.136496)"/>
    <path d="M66.6666 38.8889C69.7349 38.8889 72.2222 36.4016 72.2222 33.3333C72.2222 30.2651 69.7349 27.7778 66.6666 27.7778C63.5984 27.7778 61.1111 30.2651 61.1111 33.3333C61.1111 36.4016 63.5984 38.8889 66.6666 38.8889Z" fill="#3E721D"/>
    <path d="M127.778 22.2222C130.846 22.2222 133.333 19.7349 133.333 16.6667C133.333 13.5984 130.846 11.1111 127.778 11.1111C124.71 11.1111 122.222 13.5984 122.222 16.6667C122.222 19.7349 124.71 22.2222 127.778 22.2222Z" fill="#3E721D"/>
    <path d="M116.667 55.5556C119.735 55.5556 122.222 53.0683 122.222 50C122.222 46.9318 119.735 44.4444 116.667 44.4444C113.598 44.4444 111.111 46.9318 111.111 50C111.111 53.0683 113.598 55.5556 116.667 55.5556Z" fill="#3E721D"/>
    <path d="M77.7778 94.4444C80.846 94.4444 83.3333 91.9571 83.3333 88.8889C83.3333 85.8206 80.846 83.3333 77.7778 83.3333C74.7095 83.3333 72.2222 85.8206 72.2222 88.8889C72.2222 91.9571 74.7095 94.4444 77.7778 94.4444Z" fill="#3E721D"/>
    <path d="M111.111 116.667C114.179 116.667 116.667 114.179 116.667 111.111C116.667 108.043 114.179 105.556 111.111 105.556C108.043 105.556 105.556 108.043 105.556 111.111C105.556 114.179 108.043 116.667 111.111 116.667Z" fill="#3E721D"/>
    <path d="M50 116.667C53.0683 116.667 55.5556 114.179 55.5556 111.111C55.5556 108.043 53.0683 105.556 50 105.556C46.9318 105.556 44.4445 108.043 44.4445 111.111C44.4445 114.179 46.9318 116.667 50 116.667Z" fill="#3E721D"/>
    <path d="M11.1111 105.556C14.1793 105.556 16.6667 103.068 16.6667 100C16.6667 96.9317 14.1793 94.4444 11.1111 94.4444C8.04285 94.4444 5.55554 96.9317 5.55554 100C5.55554 103.068 8.04285 105.556 11.1111 105.556Z" fill="#3E721D"/>
    <path d="M177.778 94.4444C180.846 94.4444 183.333 91.9571 183.333 88.8889C183.333 85.8206 180.846 83.3333 177.778 83.3333C174.709 83.3333 172.222 85.8206 172.222 88.8889C172.222 91.9571 174.709 94.4444 177.778 94.4444Z" fill="#3E721D"/>
    <path d="M161.111 138.889C164.179 138.889 166.667 136.402 166.667 133.333C166.667 130.265 164.179 127.778 161.111 127.778C158.043 127.778 155.556 130.265 155.556 133.333C155.556 136.402 158.043 138.889 161.111 138.889Z" fill="#3E721D"/>
    <path d="M122.222 172.222C125.29 172.222 127.778 169.735 127.778 166.667C127.778 163.598 125.29 161.111 122.222 161.111C119.154 161.111 116.667 163.598 116.667 166.667C116.667 169.735 119.154 172.222 122.222 172.222Z" fill="#3E721D"/>
  </g>
  <g clip-path="url(#clip-2)" transform="matrix(0.886532, 0, 0, 0.886532, 288.912018, 183.814301)" style="">
    <path d="M 166.667 38.889 C 160.773 38.889 155.121 41.23 150.953 45.398 C 146.786 49.565 144.444 55.217 144.444 61.111 L 144.444 95.139 C 144.444 101.172 139.517 106.028 133.333 108.739 L 133.333 33.333 C 133.333 24.493 129.821 16.014 123.57 9.763 C 117.319 3.512 108.841 0 100 0 C 91.159 0 82.681 3.512 76.43 9.763 C 70.179 16.014 66.667 24.493 66.667 33.333 L 66.667 131.272 C 60.433 128.633 55.556 123.656 55.556 117.361 L 55.556 88.889 C 55.556 82.995 53.214 77.343 49.047 73.175 C 44.879 69.008 39.227 66.667 33.333 66.667 C 27.44 66.667 21.787 69.008 17.62 73.175 C 13.452 77.343 11.111 82.995 11.111 88.889 L 11.111 127.778 C 11.111 140.05 20.833 149.306 29.861 154.511 C 36.772 158.5 56.144 163.4 66.667 163.683 L 66.667 183.333 C 66.667 201.739 133.333 201.739 133.333 183.333 L 133.333 141.394 C 144.339 140.733 162.728 136.1 169.328 132.289 C 178.356 127.083 188.889 117.828 188.889 105.556 L 188.889 61.111 C 188.889 55.217 186.548 49.565 182.38 45.398 C 178.213 41.23 172.56 38.889 166.667 38.889 Z" fill="#77B255"/>
    <path d="M66.6666 38.8889C69.7349 38.8889 72.2222 36.4016 72.2222 33.3333C72.2222 30.2651 69.7349 27.7778 66.6666 27.7778C63.5984 27.7778 61.1111 30.2651 61.1111 33.3333C61.1111 36.4016 63.5984 38.8889 66.6666 38.8889Z" fill="#3E721D"/>
    <path d="M127.778 22.2222C130.846 22.2222 133.333 19.7349 133.333 16.6667C133.333 13.5984 130.846 11.1111 127.778 11.1111C124.71 11.1111 122.222 13.5984 122.222 16.6667C122.222 19.7349 124.71 22.2222 127.778 22.2222Z" fill="#3E721D"/>
    <path d="M116.667 55.5556C119.735 55.5556 122.222 53.0683 122.222 50C122.222 46.9318 119.735 44.4444 116.667 44.4444C113.598 44.4444 111.111 46.9318 111.111 50C111.111 53.0683 113.598 55.5556 116.667 55.5556Z" fill="#3E721D"/>
    <path d="M77.7778 94.4444C80.846 94.4444 83.3333 91.9571 83.3333 88.8889C83.3333 85.8206 80.846 83.3333 77.7778 83.3333C74.7095 83.3333 72.2222 85.8206 72.2222 88.8889C72.2222 91.9571 74.7095 94.4444 77.7778 94.4444Z" fill="#3E721D"/>
    <path d="M111.111 116.667C114.179 116.667 116.667 114.179 116.667 111.111C116.667 108.043 114.179 105.556 111.111 105.556C108.043 105.556 105.556 108.043 105.556 111.111C105.556 114.179 108.043 116.667 111.111 116.667Z" fill="#3E721D"/>
    <path d="M72.2222 150C75.2904 150 77.7777 147.513 77.7777 144.444C77.7777 141.376 75.2904 138.889 72.2222 138.889C69.1539 138.889 66.6666 141.376 66.6666 144.444C66.6666 147.513 69.1539 150 72.2222 150Z" fill="#3E721D"/>
    <path d="M27.7778 155.556C30.846 155.556 33.3333 153.068 33.3333 150C33.3333 146.932 30.846 144.444 27.7778 144.444C24.7095 144.444 22.2222 146.932 22.2222 150C22.2222 153.068 24.7095 155.556 27.7778 155.556Z" fill="#3E721D"/>
    <path d="M50 116.667C53.0683 116.667 55.5556 114.179 55.5556 111.111C55.5556 108.043 53.0683 105.556 50 105.556C46.9318 105.556 44.4445 108.043 44.4445 111.111C44.4445 114.179 46.9318 116.667 50 116.667Z" fill="#3E721D"/>
    <path d="M11.1111 105.556C14.1793 105.556 16.6667 103.068 16.6667 100C16.6667 96.9317 14.1793 94.4444 11.1111 94.4444C8.04285 94.4444 5.55554 96.9317 5.55554 100C5.55554 103.068 8.04285 105.556 11.1111 105.556Z" fill="#3E721D"/>
    <path d="M155.556 66.6667C158.624 66.6667 161.111 64.1794 161.111 61.1111C161.111 58.0429 158.624 55.5556 155.556 55.5556C152.487 55.5556 150 58.0429 150 61.1111C150 64.1794 152.487 66.6667 155.556 66.6667Z" fill="#3E721D"/>
    <path d="M177.778 94.4444C180.846 94.4444 183.333 91.9571 183.333 88.8889C183.333 85.8206 180.846 83.3333 177.778 83.3333C174.709 83.3333 172.222 85.8206 172.222 88.8889C172.222 91.9571 174.709 94.4444 177.778 94.4444Z" fill="#3E721D"/>
    <path d="M161.111 138.889C164.179 138.889 166.667 136.402 166.667 133.333C166.667 130.265 164.179 127.778 161.111 127.778C158.043 127.778 155.556 130.265 155.556 133.333C155.556 136.402 158.043 138.889 161.111 138.889Z" fill="#3E721D"/>
    <path d="M122.222 172.222C125.29 172.222 127.778 169.735 127.778 166.667C127.778 163.598 125.29 161.111 122.222 161.111C119.154 161.111 116.667 163.598 116.667 166.667C116.667 169.735 119.154 172.222 122.222 172.222Z" fill="#3E721D"/>
  </g>
  <title>Retro-looking abstract flower patterns in late 60's - early 70's style.</title>
  <g transform="matrix(1, 0, 0, -1, -911.535706, 308.535675)">
    <path fill="#f0c000" d="M 1193.261 208.83 C 1193.261 212.659 1196.365 215.763 1200.194 215.763 C 1202.125 215.763 1203.871 214.974 1205.128 213.7 C 1204.633 214.655 1204.353 215.739 1204.353 216.889 C 1204.353 220.718 1207.457 223.822 1211.286 223.822 C 1215.115 223.822 1218.219 220.718 1218.219 216.889 C 1218.219 215.739 1217.94 214.655 1217.444 213.7 C 1218.701 214.974 1220.448 215.763 1222.378 215.763 C 1226.208 215.763 1229.312 212.659 1229.312 208.83 C 1229.312 205.001 1226.208 201.897 1222.378 201.897 C 1221.995 201.897 1221.619 201.928 1221.252 201.988 C 1223.519 200.848 1225.075 198.501 1225.075 195.79 C 1225.075 191.961 1221.971 188.857 1218.142 188.857 C 1214.667 188.857 1211.788 191.414 1211.286 194.749 C 1210.784 191.414 1207.906 188.857 1204.431 188.857 C 1200.602 188.857 1197.498 191.961 1197.498 195.79 C 1197.498 198.501 1199.053 200.848 1201.32 201.988 C 1200.954 201.928 1200.577 201.897 1200.194 201.897 C 1196.365 201.897 1193.261 205.001 1193.261 208.83 Z M 1207.204 205.226 C 1207.204 202.971 1209.032 201.144 1211.286 201.144 C 1213.541 201.144 1215.368 202.971 1215.368 205.226 C 1215.368 207.48 1213.541 209.308 1211.286 209.308 C 1209.032 209.308 1207.204 207.48 1207.204 205.226 Z" style=""/>
    <path fill="#ff4080" d="M 1228.838 54.727 C 1228.523 56.209 1228.053 57.655 1227.436 59.04 L 1207.612 50.215 L 1228.838 54.727 Z M 1225.168 62.97 C 1224.276 64.196 1223.259 65.326 1222.132 66.341 L 1207.612 50.215 L 1225.168 62.97 Z M 1218.462 69.007 C 1217.149 69.766 1215.76 70.384 1214.318 70.852 L 1207.612 50.215 L 1218.462 69.007 Z M 1209.881 71.795 C 1209.127 71.875 1208.37 71.914 1207.612 71.914 C 1206.855 71.914 1206.098 71.875 1205.344 71.795 L 1207.612 50.215 L 1209.881 71.795 Z M 1200.907 70.852 C 1199.465 70.384 1198.076 69.766 1196.763 69.007 L 1207.612 50.215 L 1200.907 70.852 Z M 1193.092 66.341 C 1191.966 65.326 1190.949 64.196 1190.057 62.97 L 1207.612 50.215 L 1193.092 66.341 Z M 1187.789 59.04 C 1187.172 57.655 1186.702 56.209 1186.387 54.727 L 1207.612 50.215 L 1187.789 59.04 Z M 1185.913 50.215 C 1185.913 48.699 1186.072 47.186 1186.387 45.703 L 1207.612 50.215 L 1185.913 50.215 Z M 1187.789 41.389 C 1188.406 40.003 1189.166 38.687 1190.057 37.46 L 1207.612 50.215 L 1187.789 41.389 Z M 1193.092 34.089 C 1194.22 33.074 1195.449 32.181 1196.763 31.423 L 1207.612 50.215 L 1193.092 34.089 Z M 1200.907 29.577 C 1202.349 29.109 1203.836 28.793 1205.344 28.634 L 1207.612 50.215 L 1200.907 29.577 Z M 1209.881 28.634 C 1211.389 28.793 1212.876 29.109 1214.318 29.577 L 1207.612 50.215 L 1209.881 28.634 Z M 1218.462 31.423 C 1219.775 32.181 1221.006 33.074 1222.132 34.089 L 1207.612 50.215 L 1218.462 31.423 Z M 1225.168 37.46 C 1226.059 38.687 1226.819 40.003 1227.436 41.389 L 1207.612 50.215 L 1225.168 37.46 Z M 1228.838 45.703 C 1229.153 47.186 1229.312 48.699 1229.312 50.215 L 1207.612 50.215 L 1228.838 45.703 Z M 1209.349 50.215 C 1209.349 51.174 1208.571 51.951 1207.612 51.951 C 1206.653 51.951 1205.876 51.174 1205.876 50.215 C 1205.876 49.256 1206.653 48.479 1207.612 48.479 C 1208.571 48.479 1209.349 49.256 1209.349 50.215 Z" style=""/>
    <path fill="#f040c0" d="M 1375.479 94.886 C 1376.978 96.385 1377.821 98.419 1377.821 100.54 C 1377.821 104.956 1374.241 108.536 1369.825 108.536 C 1365.409 108.536 1361.829 104.956 1361.829 100.54 C 1361.829 98.419 1362.672 96.385 1364.171 94.886 C 1366.885 92.172 1366.937 89.135 1365.125 87.819 C 1363.314 86.503 1360.441 87.491 1358.699 90.91 C 1357.334 93.589 1354.581 95.276 1351.575 95.276 C 1347.159 95.276 1343.579 91.696 1343.579 87.28 C 1343.579 82.864 1347.159 79.284 1351.575 79.284 C 1352.837 79.284 1354.08 79.583 1355.205 80.156 C 1358.624 81.898 1361.529 81.009 1362.221 78.879 C 1362.913 76.751 1361.086 74.324 1357.295 73.723 C 1353.41 73.108 1350.55 69.759 1350.55 65.826 C 1350.55 61.41 1354.13 57.83 1358.546 57.83 C 1362.961 57.83 1366.542 61.41 1366.542 65.826 C 1366.542 66.245 1366.509 66.663 1366.443 67.076 C 1365.843 70.867 1367.586 73.355 1369.825 73.355 C 1372.064 73.355 1373.808 70.867 1373.207 67.076 C 1373.142 66.663 1373.109 66.245 1373.109 65.826 C 1373.109 61.41 1376.688 57.83 1381.105 57.83 C 1385.52 57.83 1389.1 61.41 1389.1 65.826 C 1389.1 69.759 1386.24 73.108 1382.355 73.723 C 1378.564 74.324 1376.738 76.751 1377.429 78.879 C 1378.121 81.009 1381.026 81.898 1384.446 80.156 C 1385.569 79.583 1386.814 79.284 1388.076 79.284 C 1392.491 79.284 1396.071 82.864 1396.071 87.28 C 1396.071 91.696 1392.491 95.276 1388.076 95.276 C 1385.069 95.276 1382.316 93.589 1380.951 90.91 C 1379.209 87.491 1376.336 86.503 1374.525 87.819 C 1372.714 89.135 1372.765 92.172 1375.479 94.886 Z" style=""/>
    <path fill="#8040c0" d="M 1232.467 108.389 C 1232.467 112.322 1235.655 115.51 1239.589 115.51 C 1239.779 115.51 1239.969 115.504 1240.156 115.488 C 1237.754 116.633 1236.093 119.083 1236.093 121.922 C 1236.093 125.856 1239.282 129.044 1243.215 129.044 C 1246.053 129.044 1248.503 127.383 1249.648 124.981 C 1249.633 125.168 1249.626 125.357 1249.626 125.548 C 1249.626 129.481 1252.815 132.67 1256.747 132.67 C 1260.681 132.67 1263.869 129.481 1263.869 125.548 C 1263.869 124.047 1263.405 122.654 1262.611 121.505 C 1263.76 122.299 1265.153 122.763 1266.654 122.763 C 1270.587 122.763 1273.776 119.574 1273.776 115.641 C 1273.776 111.709 1270.587 108.52 1266.654 108.52 C 1266.463 108.52 1266.274 108.527 1266.088 108.542 C 1268.49 107.397 1270.15 104.947 1270.15 102.109 C 1270.15 98.175 1266.962 94.987 1263.028 94.987 C 1260.19 94.987 1257.739 96.648 1256.595 99.05 C 1256.61 98.863 1256.617 98.673 1256.617 98.482 C 1256.617 94.549 1253.429 91.361 1249.495 91.361 C 1245.563 91.361 1242.374 94.549 1242.374 98.482 C 1242.374 99.984 1242.839 101.377 1243.632 102.526 C 1242.483 101.732 1241.09 101.268 1239.589 101.268 C 1235.655 101.268 1232.467 104.456 1232.467 108.389 Z M 1248.452 112.016 C 1248.452 109.436 1250.542 107.345 1253.122 107.345 C 1255.701 107.345 1257.792 109.436 1257.792 112.016 C 1257.792 114.595 1255.701 116.686 1253.122 116.686 C 1250.542 116.686 1248.452 114.595 1248.452 112.016 Z" style=""/>
    <path fill="#ff0040" d="M 1343.074 187.825 C 1343.074 188.361 1343.16 188.914 1343.345 189.481 C 1344.258 192.293 1346.903 193.399 1350.003 193.399 C 1351.722 193.399 1353.583 193.059 1355.365 192.479 C 1359.557 191.117 1362.895 189.081 1365.144 187.053 C 1363.912 189.819 1363.007 193.623 1363.007 198.031 C 1363.007 203.284 1364.976 208.536 1369.572 208.536 C 1374.168 208.536 1376.139 203.284 1376.139 198.031 C 1376.139 193.623 1375.233 189.819 1374 187.053 C 1376.249 189.081 1379.587 191.117 1383.779 192.479 C 1385.562 193.059 1387.422 193.399 1389.142 193.399 C 1392.242 193.399 1394.886 192.293 1395.799 189.481 C 1395.984 188.914 1396.071 188.361 1396.071 187.825 C 1396.071 184.233 1392.184 181.403 1387.837 179.99 C 1384.624 178.946 1381.583 178.517 1378.982 178.517 C 1378.191 178.517 1377.439 178.557 1376.737 178.632 C 1379.359 177.118 1382.328 174.573 1384.919 171.008 C 1386.719 168.531 1387.976 165.66 1387.976 163.161 C 1387.976 161.373 1387.332 159.776 1385.782 158.649 C 1384.814 157.946 1383.781 157.635 1382.728 157.635 C 1379.735 157.635 1376.579 160.145 1374.295 163.288 C 1371.704 166.855 1370.201 170.465 1369.572 173.427 C 1368.944 170.465 1367.441 166.855 1364.85 163.288 C 1362.566 160.145 1359.41 157.635 1356.417 157.635 C 1355.364 157.635 1354.331 157.946 1353.363 158.649 C 1351.812 159.776 1351.168 161.373 1351.168 163.161 C 1351.168 165.66 1352.426 168.531 1354.226 171.008 C 1356.816 174.573 1359.785 177.118 1362.408 178.632 C 1361.706 178.557 1360.954 178.517 1360.162 178.517 C 1357.561 178.517 1354.521 178.946 1351.307 179.99 C 1346.96 181.403 1343.074 184.233 1343.074 187.825 Z M 1366.946 180.959 C 1366.946 179.509 1368.122 178.333 1369.572 178.333 C 1371.023 178.333 1372.199 179.509 1372.199 180.959 C 1372.199 182.41 1371.023 183.585 1369.572 183.585 C 1368.122 183.585 1366.946 182.41 1366.946 180.959 Z" style=""/>
    <path fill="#eae200" d="M 1281.187 235.397 C 1281.187 236.076 1281.299 236.79 1281.541 237.534 C 1282.621 240.859 1285.434 242.163 1288.555 242.163 C 1289.932 242.163 1291.369 241.909 1292.744 241.463 C 1295.189 240.668 1297.289 239.546 1298.993 238.294 C 1298.329 240.301 1297.91 242.645 1297.91 245.217 C 1297.91 249.937 1300.07 254.657 1305.109 254.657 C 1310.147 254.657 1312.307 249.937 1312.307 245.217 C 1312.307 242.645 1311.888 240.301 1311.225 238.294 C 1312.929 239.546 1315.028 240.668 1317.474 241.463 C 1318.849 241.909 1320.286 242.163 1321.663 242.163 C 1324.783 242.163 1327.596 240.859 1328.677 237.534 C 1328.919 236.79 1329.03 236.076 1329.03 235.397 C 1329.03 231.7 1325.715 229.003 1321.923 227.771 C 1319.516 226.989 1317.194 226.661 1315.106 226.661 L 1315.004 226.661 C 1316.721 225.427 1318.437 223.777 1319.949 221.696 C 1321.412 219.684 1322.389 217.318 1322.389 215.097 C 1322.389 213.105 1321.602 211.229 1319.675 209.828 C 1318.434 208.927 1317.152 208.536 1315.891 208.536 C 1313.008 208.536 1310.232 210.578 1308.302 213.234 C 1306.79 215.315 1305.752 217.457 1305.109 219.471 C 1304.466 217.457 1303.427 215.315 1301.915 213.234 C 1299.985 210.578 1297.21 208.536 1294.327 208.536 C 1293.066 208.536 1291.784 208.927 1290.543 209.828 C 1288.615 211.229 1287.829 213.105 1287.829 215.097 C 1287.829 217.318 1288.806 219.684 1290.268 221.696 C 1291.78 223.777 1293.496 225.427 1295.213 226.661 L 1295.112 226.661 C 1293.024 226.661 1290.702 226.989 1288.295 227.771 C 1284.503 229.003 1281.187 231.7 1281.187 235.397 Z M 1301.451 229.876 C 1301.451 227.856 1303.088 226.218 1305.109 226.218 C 1307.129 226.218 1308.767 227.856 1308.767 229.876 C 1308.767 231.897 1307.129 233.535 1305.109 233.535 C 1303.088 233.535 1301.451 231.897 1301.451 229.876 Z" style=""/>
  </g>
</svg>