<svg  viewBox="0 0 900 900" fill="none" xmlns="http://www.w3.org/2000/svg">
<g clip-path="url(#clip0_454_553)">
<path d="M649.499 73.9875C655.289 78.4962 656.116 87.1094 651.351 93.2299C656.116 87.1094 664.669 85.7999 670.46 90.3086C676.25 94.8173 677.077 103.431 672.312 109.551C665.129 118.775 654.122 115.432 631.228 121.191C630.977 121.254 630.719 121.262 630.472 121.212C630.225 121.163 629.996 121.059 629.801 120.906C629.605 120.754 629.448 120.558 629.339 120.331C629.231 120.104 629.175 119.851 629.174 119.592C629.147 95.9849 623.207 86.1332 630.389 76.9087C635.155 70.7883 643.708 69.4788 649.499 73.9875Z" fill="#FF0000"/>
</g>
<path d="M781.701 279.503L781.62 285.178L787.228 286.024L792.442 286.811C815.176 290.242 822.106 319.671 803.296 332.905L637.222 449.757L584.428 394.75L738.367 238.04C754.484 221.634 782.354 233.278 782.029 256.282L781.701 279.503Z" fill="#9CDA82" stroke="#332C2C" stroke-width="13"/>
<path d="M114.265 326.288L114.291 331.433L108.385 332.35L96.8008 334.147C72.5355 337.912 65.2553 365.085 85.3597 376.851L276.202 488.532L337.129 432.836L160.99 281.232C143.821 266.455 114.014 277.554 114.123 298.683L114.265 326.288Z" fill="#9CDA82" stroke="#332C2C" stroke-width="13"/>
<path d="M394.311 62.8748C394.311 91.4963 372.085 114.25 345.21 114.25C318.335 114.25 296.108 91.4963 296.108 62.8748C296.108 34.2533 318.335 11.5 345.21 11.5C372.085 11.5 394.311 34.2533 394.311 62.8748Z" fill="#9CDA82" stroke="#332C2C" stroke-width="13"/>
<ellipse cx="449.29" cy="317.199" rx="228.789" ry="245.773" fill="#9CDA82"/>
<path d="M672.481 311.572C672.481 447.569 572.39 556.737 450.193 556.737C327.84 556.737 223.456 447.401 223.456 311.572C223.456 175.64 327.935 63.4387 450.193 63.4387C572.297 63.4387 672.481 175.47 672.481 311.572Z" fill="#9CDA82" stroke="#332C2C" stroke-width="13"/>
<path d="M432.688 57.7033C427.986 24.5473 431.12 46.6514 427.986 24.5473" stroke="#332C2C" stroke-width="10" stroke-linecap="round"/>
<path d="M245.51 309.954C211.025 290.265 234.015 303.392 211.025 290.265" stroke="#332C2C" stroke-width="10" stroke-linecap="round"/>
<path d="M605.088 71.4263C575.192 100.486 595.123 81.1134 575.192 100.486" stroke="#332C2C" stroke-width="10" stroke-linecap="round"/>
<path d="M277.651 602.719C247.755 631.779 267.686 612.406 247.755 631.779" stroke="#332C2C" stroke-width="10" stroke-linecap="round"/>
<path d="M498.874 298.321C522.303 262.231 537.415 297.949 537.415 297.949" stroke="#332C2C" stroke-width="13" stroke-linecap="round"/>
<path d="M353.404 298.162C376.617 261.908 391.942 297.519 391.942 297.519" stroke="#332C2C" stroke-width="13" stroke-linecap="round"/>
<path d="M625.922 493.443C591.437 473.754 614.427 486.881 591.437 473.754" stroke="#332C2C" stroke-width="10" stroke-linecap="round"/>
<path d="M658.948 142.128C623.927 160.296 647.275 148.185 623.927 160.296" stroke="#332C2C" stroke-width="10" stroke-linecap="round"/>
<path d="M695.868 311.737C659.576 325.517 683.771 316.331 659.576 325.517" stroke="#332C2C" stroke-width="10" stroke-linecap="round"/>
<path d="M660.874 525.111C624.582 538.891 648.777 529.705 624.582 538.89" stroke="#332C2C" stroke-width="10" stroke-linecap="round"/>
<path d="M247.317 467.926C211.025 481.706 235.22 472.52 211.025 481.705" stroke="#332C2C" stroke-width="10" stroke-linecap="round"/>
<path d="M294.409 430.106C275.843 388.954 288.22 416.389 275.843 388.954" stroke="#332C2C" stroke-width="10" stroke-linecap="round"/>
<path d="M283.344 163.438C267.956 120.307 278.214 149.061 267.956 120.307" stroke="#332C2C" stroke-width="10" stroke-linecap="round"/>
<path d="M219.188 334.494H677.637L601.455 700.75H296.729L219.188 334.494Z" fill="#9CDA82"/>
<path d="M507.088 74.9712C615.85 234.609 622.142 511.314 507.088 700.75" stroke="#332C2C" stroke-width="13" stroke-linecap="round"/>
<path d="M519 86C627.83 239.571 634.126 505.762 519 688" stroke="#332C2C" stroke-opacity="0.1" stroke-width="30" stroke-linecap="round"/>
<path d="M382.632 701.873L386.474 707.113L396.96 699.421L393.118 694.181L382.632 701.873ZM392.697 78.7939C395.104 76.1291 394.897 72.0189 392.235 69.6136C389.572 67.2082 385.461 67.4185 383.054 70.0833L392.697 78.7939ZM393.118 694.181C336.089 616.393 307.317 494.047 307.4 374.739C307.483 255.276 336.483 141.013 392.697 78.7939L383.054 70.0833C323.635 135.85 294.484 254.064 294.4 374.741C294.316 495.572 323.36 621.027 382.632 701.873L393.118 694.181Z" fill="#332C2C"/>
<path d="M375.859 687.872C259.565 533.472 260.247 205.479 375.885 80.8954" stroke="#332C2C" stroke-opacity="0.1" stroke-width="30" stroke-linecap="round"/>
<ellipse cx="357.91" cy="337.459" rx="26.3987" ry="29.4591" fill="#F96591"/>
<ellipse cx="533.901" cy="336.558" rx="26.3987" ry="29.4591" fill="#F96591"/>
<path d="M409.722 332.78C412.517 361.753 449.998 405.79 475.466 352.992C498.687 304.854 433.801 320.421 414.725 325.871C411.601 326.764 409.409 329.543 409.722 332.78Z" fill="#FF7B7B" stroke="#332C2C" stroke-width="13" stroke-linecap="round"/>
<path d="M608.276 552.342C576.968 575.306 592.399 559.997 571.526 575.306" stroke="#332C2C" stroke-width="10" stroke-linecap="round"/>
<path d="M320.776 429.802C284.484 443.582 308.679 434.396 284.484 443.582" stroke="#332C2C" stroke-width="10" stroke-linecap="round"/>
<path d="M306.32 80.5062C301.533 98.2468 299.22 104.012 290.462 104.012C281.704 104.012 277.767 96.9162 274.604 80.5062C270.073 57 281.704 57 290.462 57C299.22 57 312.663 57 306.32 80.5062Z" fill="#FF7B7B" stroke="#332C2C" stroke-width="10"/>
<path d="M271.857 131.892C276.49 114.151 278.728 108.386 287.203 108.386C295.679 108.386 299.489 115.482 302.55 131.892C306.934 155.398 295.679 155.398 287.203 155.398C278.728 155.398 265.718 155.398 271.857 131.892Z" fill="#FF7B7B" stroke="#332C2C" stroke-width="10"/>
<path d="M326.768 104.027C310.764 113.212 305.034 115.676 298.916 109.644C292.798 103.612 295.112 95.9069 304.613 82.1816C318.223 62.521 326.347 70.5319 332.465 76.5643C338.583 82.5967 347.974 91.8559 326.768 104.027Z" fill="#FF7B7B" stroke="#332C2C" stroke-width="10"/>
<path d="M258.357 104.507C276.227 99.7189 282.409 98.801 286.735 106.189C291.061 113.577 286.803 120.429 274.023 131.262C255.717 146.779 249.972 136.968 245.646 129.58C241.32 122.192 234.679 110.852 258.357 104.507Z" fill="#FF7B7B" stroke="#332C2C" stroke-width="10"/>
<path d="M278.428 80.8516C287.744 96.6319 290.243 102.282 284.125 108.314C278.007 114.346 270.193 112.065 256.273 102.697C236.333 89.2776 244.458 81.2666 250.576 75.2343C256.694 69.2019 266.084 59.9427 278.428 80.8516Z" fill="#FF7B7B" stroke="#332C2C" stroke-width="10"/>
<path d="M307.146 134.57C294.005 121.705 290.108 116.886 294.434 109.498C298.76 102.11 306.907 102.319 322.812 107.816C345.594 115.689 339.849 125.5 335.523 132.889C331.197 140.277 324.557 151.617 307.146 134.57Z" fill="#FF7B7B" stroke="#332C2C" stroke-width="10"/>
<path d="M290.778 125.412C301.128 125.412 309.639 117.121 309.639 106.746C309.639 96.3704 301.128 88.0793 290.778 88.0793C280.429 88.0793 271.918 96.3704 271.918 106.746C271.918 117.121 280.429 125.412 290.778 125.412Z" fill="#F3FF66" stroke="#332C2C" stroke-width="10"/>
<path d="M672.195 331.769L605.384 694.199C604.684 697.994 601.375 700.748 597.517 700.748H306.991C303.351 700.748 300.17 698.291 299.25 694.769L261.359 549.619L234.152 413.464L223.269 331.769" stroke="#332C2C" stroke-width="13" stroke-linecap="round"/>
<line x1="687.865" y1="307.585" x2="666.585" y2="417.135" stroke="#332C2C" stroke-opacity="0.1" stroke-width="30" stroke-linecap="round"/>
<line x1="213.847" y1="338.891" x2="228.911" y2="452.153" stroke="#332C2C" stroke-opacity="0.1" stroke-width="30" stroke-linecap="round"/>
<path d="M646.125 631.991H249.396C249.396 631.991 258.355 825.956 318.505 833.275C418.816 845.482 438.803 846.98 579.578 833.275C624.369 828.915 646.125 631.991 646.125 631.991Z" fill="url(#paint0_linear_454_553)" stroke="#332C2C" stroke-width="13"/>
<path d="M227 660.41C227 638.286 245.278 620.534 267.393 621.18L452.879 626.598L632.593 621.211C654.711 620.548 673 638.298 673 660.425V660.425C673 682.092 655.435 699.657 633.768 699.657H452.879H266.247C244.571 699.657 227 682.086 227 660.41V660.41Z" fill="#956D6D" stroke="#332C2C" stroke-width="13" stroke-linecap="round"/>
<path d="M699.585 41.3393C704.083 44.8417 704.725 51.5326 701.023 56.2871C704.725 51.5326 711.37 50.5153 715.868 54.0178C720.366 57.5202 721.008 64.2111 717.306 68.9656C711.727 76.1313 703.176 73.5337 685.392 78.0081C685.197 78.057 684.996 78.0626 684.805 78.0244C684.613 77.9861 684.435 77.905 684.283 77.7867C684.131 77.6684 684.009 77.5157 683.925 77.3394C683.841 77.163 683.797 76.9672 683.797 76.7656C683.775 58.4273 679.161 50.7743 684.74 43.6086C688.442 38.8541 695.087 37.8368 699.585 41.3393Z" fill="#FF0000"/>
<defs>
<linearGradient id="paint0_linear_454_553" x1="449.041" y1="631.991" x2="449.041" y2="833.275" gradientUnits="userSpaceOnUse">
<stop stop-color="#956D6D"/>
<stop offset="0.182979" stop-color="#311A1A"/>
<stop offset="0.361702" stop-color="#795252"/>
<stop offset="0.974468" stop-color="#864C4C"/>
</linearGradient>
<clipPath id="clip0_454_553">
<rect width="53.1319" height="57.3265" fill="white" transform="translate(641.219 63) rotate(37.9056)"/>
</clipPath>
</defs>
</svg>
