<svg  viewBox="0 0 900 900" fill="none" xmlns="http://www.w3.org/2000/svg">
<path d="M369.633 357.533C369.633 372.02 358.125 383.566 344.17 383.566C330.216 383.566 318.708 372.02 318.708 357.533C318.708 343.047 330.216 331.5 344.17 331.5C358.125 331.5 369.633 343.047 369.633 357.533Z" fill="#9CDA82" stroke="#332C2C" stroke-width="13"/>
<ellipse cx="446.907" cy="523.624" rx="192.916" ry="166.661" fill="#9CDA82"/>
<path d="M635.008 521.34C635.008 611.206 550.685 685.497 446.88 685.497C342.97 685.497 256.468 611.116 256.468 521.34C256.468 431.359 343.205 352.618 446.88 352.618C550.452 352.618 635.008 431.267 635.008 521.34Z" fill="#9CDA82" stroke="#332C2C" stroke-width="13"/>
<path d="M478.869 356.962C591.269 439.664 597.771 583.013 478.869 681.153" stroke="#332C2C" stroke-width="10" stroke-linecap="round"/>
<path d="M490.149 363C604.162 441.316 617.757 580.065 497.149 673" stroke="#190000" stroke-opacity="0.1" stroke-width="30" stroke-linecap="round"/>
<path d="M412.323 681.217C304.47 598.649 297.965 455.185 411.701 356.741" stroke="#332C2C" stroke-width="10" stroke-linecap="round"/>
<path d="M386.736 673.01C289.987 595.132 284.139 459.832 386.149 367" stroke="#332C2C" stroke-opacity="0.1" stroke-width="30" stroke-linecap="round"/>
<path d="M432.908 347.657C428.943 325.174 431.586 340.163 428.943 325.173" stroke="#332C2C" stroke-width="10" stroke-linecap="round"/>
<path d="M275.078 518.711C246 505.359 265.385 514.261 246 505.359" stroke="#332C2C" stroke-width="10" stroke-linecap="round"/>
<path d="M578.276 356.962C553.068 376.668 569.874 363.531 553.068 376.668" stroke="#332C2C" stroke-width="10" stroke-linecap="round"/>
<path d="M595.844 643.136C566.766 629.785 586.151 638.686 566.766 629.785" stroke="#332C2C" stroke-width="10" stroke-linecap="round"/>
<path d="M623.692 404.906C594.163 417.226 613.849 409.013 594.163 417.226" stroke="#332C2C" stroke-width="10" stroke-linecap="round"/>
<path d="M654.823 519.92C624.221 529.264 644.622 523.035 624.221 529.264" stroke="#332C2C" stroke-width="10" stroke-linecap="round"/>
<path d="M316.31 600.186C300.655 572.281 311.092 590.885 300.655 572.281" stroke="#332C2C" stroke-width="10" stroke-linecap="round"/>
<path d="M306.98 419.357C294.004 390.109 302.654 409.608 294.005 390.109" stroke="#332C2C" stroke-width="10" stroke-linecap="round"/>
<ellipse cx="518.251" cy="536.751" rx="22.2595" ry="19.9765" fill="#F96591"/>
<ellipse cx="369.854" cy="539.034" rx="22.2595" ry="19.9765" fill="#F96591"/>
<path d="M502.841 516.774C502.841 493.944 502.841 509.164 502.841 493.944" stroke="#332C2C" stroke-width="15" stroke-linecap="round"/>
<path d="M380.128 516.783C380.128 493.953 380.128 509.173 380.128 493.953" stroke="#332C2C" stroke-width="15" stroke-linecap="round"/>
<path d="M441 540.836L442.176 541.22L443.362 540.873C455.588 537.306 464.413 536.302 470.694 536.931C476.86 537.549 480.374 539.705 482.494 542.419C484.71 545.257 485.849 549.274 486.086 554.387C486.322 559.477 485.648 565.23 484.636 571.16C483.483 577.916 481.423 581.808 479.164 584.105C476.955 586.353 474.166 587.47 470.688 587.896C467.106 588.335 463.081 588.011 458.597 587.545C458.137 587.497 457.671 587.448 457.2 587.398C453.265 586.981 448.994 586.528 444.999 586.704C440.425 586.905 436.019 587.84 432.083 588.675L431.92 588.709C427.813 589.58 424.272 590.317 420.911 590.392C417.664 590.464 414.762 589.905 411.986 588.254C409.201 586.597 406.221 583.648 403.16 578.4C396.349 562.764 397.04 550.489 402.644 543.806C408.131 537.262 420.148 534.027 441 540.836Z" fill="#FCFF72" stroke="#332C2C" stroke-width="8"/>
<path d="M434.804 571.744C415.307 594.049 467.816 602.039 455.26 575.784" stroke="#FFD600" stroke-width="6" stroke-linecap="round"/>
<path d="M443.331 576.351C450.249 576.351 456.105 571.02 456.105 564.148C456.105 557.276 450.249 551.945 443.331 551.945C436.413 551.945 430.558 557.276 430.558 564.148C430.558 571.02 436.413 576.351 443.331 576.351Z" fill="#DFE780" stroke="#FFD600" stroke-width="5"/>
<path d="M646.125 631.991H249.396C249.396 631.991 258.355 825.956 318.505 833.275C418.816 845.482 438.803 846.98 579.578 833.275C624.369 828.915 646.125 631.991 646.125 631.991Z" fill="url(#paint0_linear_454_553)" stroke="#332C2C" stroke-width="13"/>
<path d="M227 660.41C227 638.286 245.278 620.534 267.393 621.18L452.879 626.598L632.593 621.211C654.711 620.548 673 638.298 673 660.425V660.425C673 682.092 655.435 699.657 633.768 699.657H452.879H266.247C244.571 699.657 227 682.086 227 660.41V660.41Z" fill="#956D6D" stroke="#332C2C" stroke-width="13" stroke-linecap="round"/>
<defs>
<linearGradient id="paint0_linear_454_553" x1="449.041" y1="631.991" x2="449.041" y2="833.275" gradientUnits="userSpaceOnUse">
<stop stop-color="#956D6D"/>
<stop offset="0.182979" stop-color="#311A1A"/>
<stop offset="0.361702" stop-color="#795252"/>
<stop offset="0.974468" stop-color="#864C4C"/>
</linearGradient>
</defs>
</svg>
