<svg  viewBox="0 0 900 900" fill="none" xmlns="http://www.w3.org/2000/svg">
<path d="M389.106 409.315C389.106 420.77 380.327 429.63 370.01 429.63C359.693 429.63 350.914 420.77 350.914 409.315C350.914 397.86 359.693 389 370.01 389C380.327 389 389.106 397.86 389.106 409.315Z" fill="#9CDA82" stroke="#332C2C" stroke-width="10"/>
<ellipse cx="447.462" cy="538.554" rx="145.438" ry="129.683" fill="#9CDA82"/>
<path d="M588.956 536.87C588.956 606.978 522.474 667.263 444.417 667.263C366.69 667.263 307.044 607.285 307.044 536.87C307.044 466.439 366.706 406.153 444.417 406.153C522.457 406.153 588.956 466.748 588.956 536.87Z" fill="#9CDA82" stroke="#332C2C" stroke-width="10"/>
<path d="M471.559 408.871C556.296 473.223 561.198 584.767 471.559 661.131" stroke="#332C2C" stroke-width="10" stroke-linecap="round"/>
<path d="M494 419C562 483 566.639 581.558 494 653" stroke="#332C2C" stroke-opacity="0.1" stroke-width="15" stroke-linecap="round"/>
<path d="M421.39 661.181C340.081 596.933 335.176 485.3 420.921 408.699" stroke="#332C2C" stroke-width="10" stroke-linecap="round"/>
<path d="M405 652C341 591 319.247 495.534 405 423" stroke="#332C2C" stroke-opacity="0.1" stroke-width="15" stroke-linecap="round"/>
<path d="M436.909 401.63C433.92 384.135 435.912 395.798 433.92 384.135" stroke="#332C2C" stroke-width="10" stroke-linecap="round"/>
<path d="M317.921 534.731C296 524.342 310.614 531.268 296 524.342" stroke="#332C2C" stroke-width="10" stroke-linecap="round"/>
<path d="M546.501 408.871C527.496 424.204 540.166 413.982 527.496 424.204" stroke="#332C2C" stroke-width="10" stroke-linecap="round"/>
<path d="M559.745 631.55C537.824 621.161 552.438 628.087 537.824 621.161" stroke="#332C2C" stroke-width="10" stroke-linecap="round"/>
<path d="M580.74 446.177C558.477 455.764 573.319 449.373 558.477 455.763" stroke="#332C2C" stroke-width="10" stroke-linecap="round"/>
<path d="M604.209 535.672C581.138 542.943 596.519 538.096 581.138 542.943" stroke="#332C2C" stroke-width="10" stroke-linecap="round"/>
<path d="M349.006 598.129C337.204 576.416 345.072 590.892 337.204 576.415" stroke="#332C2C" stroke-width="10" stroke-linecap="round"/>
<path d="M341.972 457.421C332.19 434.663 338.711 449.835 332.19 434.663" stroke="#332C2C" stroke-width="10" stroke-linecap="round"/>
<ellipse cx="501.249" cy="548.769" rx="16.7813" ry="15.5442" fill="#F96591"/>
<ellipse cx="389.373" cy="550.545" rx="16.7813" ry="15.5442" fill="#F96591"/>
<path d="M444.945 552.779L446.154 553.186L447.376 552.819C456.53 550.062 463.028 549.322 467.562 549.791C471.966 550.246 474.341 551.807 475.755 553.677C477.276 555.687 478.117 558.62 478.293 562.527C478.468 566.405 477.97 570.817 477.209 575.414C476.355 580.583 474.847 583.428 473.312 585.039C471.838 586.587 469.976 587.378 467.533 587.687C464.974 588.011 462.057 587.775 458.667 587.411C458.323 587.375 457.972 587.336 457.616 587.297C454.662 586.973 451.354 586.611 448.252 586.752C444.711 586.912 441.313 587.657 438.366 588.302L438.211 588.336C435.093 589.019 432.528 589.565 430.117 589.62C427.827 589.673 425.852 589.269 423.964 588.11C422.055 586.938 419.914 584.795 417.661 580.819C412.586 568.769 413.244 559.606 417.164 554.781C420.904 550.177 429.375 547.531 444.945 552.779Z" fill="#FCFF72" stroke="#332C2C" stroke-width="8"/>
<path d="M441.616 575.998C426.917 593.353 466.503 599.571 457.037 579.141" stroke="#FFD600" stroke-width="6" stroke-linecap="round"/>
<path d="M448.044 580.137C453.642 580.137 458.289 575.697 458.289 570.087C458.289 564.476 453.642 560.037 448.044 560.037C442.446 560.037 437.799 564.476 437.799 570.087C437.799 575.697 442.446 580.137 448.044 580.137Z" fill="#DFE780" stroke="#FFD600" stroke-width="5"/>
<path d="M502.508 524.167C488.77 543.025 478.01 532.607 474.347 525.041" stroke="#332C2C" stroke-width="8" stroke-linecap="round"/>
<path d="M418.005 526.234C404.267 545.092 393.507 534.674 389.844 527.107" stroke="#332C2C" stroke-width="8" stroke-linecap="round"/>
<path d="M646.125 631.991H249.396C249.396 631.991 258.355 825.956 318.505 833.275C418.816 845.482 438.803 846.98 579.578 833.275C624.369 828.915 646.125 631.991 646.125 631.991Z" fill="url(#paint0_linear_454_553)" stroke="#332C2C" stroke-width="13"/>
<path d="M227 660.41C227 638.286 245.278 620.534 267.393 621.18L452.879 626.598L632.593 621.211C654.711 620.548 673 638.298 673 660.425V660.425C673 682.092 655.435 699.657 633.768 699.657H452.879H266.247C244.571 699.657 227 682.086 227 660.41V660.41Z" fill="#956D6D" stroke="#332C2C" stroke-width="13" stroke-linecap="round"/>
<defs>
<linearGradient id="paint0_linear_454_553" x1="449.041" y1="631.991" x2="449.041" y2="833.275" gradientUnits="userSpaceOnUse">
<stop stop-color="#956D6D"/>
<stop offset="0.182979" stop-color="#311A1A"/>
<stop offset="0.361702" stop-color="#795252"/>
<stop offset="0.974468" stop-color="#864C4C"/>
</linearGradient>
</defs>
</svg>
