<svg  viewBox="0 0 900 900" fill="none" xmlns="http://www.w3.org/2000/svg">
<path d="M396.509 267.963C396.509 292.059 377.291 311.426 353.788 311.426C330.285 311.426 311.066 292.059 311.066 267.963C311.066 243.867 330.285 224.5 353.788 224.5C377.291 224.5 396.509 243.867 396.509 267.963Z" fill="#9CDA82" stroke="#332C2C" stroke-width="13"/>
<ellipse cx="445.925" cy="487.52" rx="202.536" ry="212.175" fill="#9CDA82"/>
<path d="M642.761 482.662C642.761 599.499 554.57 693.422 446.724 693.422C338.721 693.422 246.75 599.332 246.75 482.662C246.75 365.89 338.818 269.338 446.724 269.338C554.475 269.338 642.761 365.722 642.761 482.662Z" fill="#9CDA82" stroke="#332C2C" stroke-width="13"/>
<path d="M477.825 275.65C598.565 380.883 605.55 563.288 477.825 688.165" stroke="#332C2C" stroke-width="10" stroke-linecap="square"/>
<path d="M509.375 288.136C606.892 387.477 610.597 557.722 504.845 673" stroke="#332C2C" stroke-opacity="0.1" stroke-width="30" stroke-linecap="round"/>
<path d="M391.753 678.031C281.64 581.535 270.607 409.246 380.845 288" stroke="#332C2C" stroke-opacity="0.1" stroke-width="30" stroke-linecap="round"/>
<path d="M405.561 690.549L409.224 693.949L416.031 686.618L412.368 683.218L405.561 690.549ZM411.93 277.245C413.836 275.245 413.76 272.08 411.762 270.176C409.763 268.272 406.598 268.349 404.693 270.349L411.93 277.245ZM412.368 683.218C301.3 580.11 294.328 400.677 411.93 277.245L404.693 270.349C283.479 397.573 290.166 583.424 405.561 690.549L412.368 683.218Z" fill="#332C2C"/>
<path d="M431.228 263.498C427.066 234.875 429.84 253.957 427.066 234.875" stroke="#332C2C" stroke-width="10" stroke-linecap="round"/>
<path d="M265.528 481.265C235 464.268 255.352 475.6 235 464.268" stroke="#332C2C" stroke-width="10" stroke-linecap="round"/>
<path d="M583.846 275.345C557.38 300.433 575.024 283.708 557.38 300.432" stroke="#332C2C" stroke-width="10" stroke-linecap="round"/>
<path d="M602.289 639.67C571.761 622.673 592.113 634.005 571.761 622.672" stroke="#332C2C" stroke-width="10" stroke-linecap="round"/>
<path d="M631.526 336.382C600.524 352.067 621.192 341.611 600.524 352.066" stroke="#332C2C" stroke-width="10" stroke-linecap="round"/>
<path d="M664.21 482.805C632.082 494.701 653.501 486.77 632.082 494.7" stroke="#332C2C" stroke-width="10" stroke-linecap="round"/>
<path d="M308.817 584.991C292.381 549.466 303.338 573.15 292.381 549.465" stroke="#332C2C" stroke-width="10" stroke-linecap="round"/>
<path d="M299.021 354.779C285.398 317.544 294.48 342.367 285.399 317.544" stroke="#332C2C" stroke-width="10" stroke-linecap="round"/>
<ellipse cx="520.828" cy="504.232" rx="23.3696" ry="25.4319" fill="#F96591"/>
<ellipse cx="365.031" cy="507.139" rx="23.3696" ry="25.4319" fill="#F96591"/>
<path d="M504.649 478.8C504.649 453.178 504.649 470.26 504.649 453.178" stroke="#332C2C" stroke-width="15" stroke-linecap="round"/>
<path d="M375.817 478.811C375.817 453.189 375.817 470.27 375.817 453.189" stroke="#332C2C" stroke-width="15" stroke-linecap="round"/>
<path d="M465.352 507.504C434.679 538.676 420.046 519.812 416.563 506.483" stroke="#332C2C" stroke-width="12" stroke-linecap="round"/>
<path d="M646.125 631.991H249.396C249.396 631.991 258.355 825.956 318.505 833.275C418.816 845.482 438.803 846.98 579.578 833.275C624.369 828.915 646.125 631.991 646.125 631.991Z" fill="url(#paint0_linear_454_553)" stroke="#332C2C" stroke-width="13"/>
<path d="M227 660.41C227 638.286 245.278 620.534 267.393 621.18L452.879 626.598L632.593 621.211C654.711 620.548 673 638.298 673 660.425V660.425C673 682.092 655.435 699.657 633.768 699.657H452.879H266.247C244.571 699.657 227 682.086 227 660.41V660.41Z" fill="#956D6D" stroke="#332C2C" stroke-width="13" stroke-linecap="round"/>
<defs>
<linearGradient id="paint0_linear_454_553" x1="449.041" y1="631.991" x2="449.041" y2="833.275" gradientUnits="userSpaceOnUse">
<stop stop-color="#956D6D"/>
<stop offset="0.182979" stop-color="#311A1A"/>
<stop offset="0.361702" stop-color="#795252"/>
<stop offset="0.974468" stop-color="#864C4C"/>
</linearGradient>
</defs>
</svg>
