<svg  viewBox="0 0 900 900" fill="none" xmlns="http://www.w3.org/2000/svg">
<path d="M760.06 335.274L759.976 340.773L765.874 341.594C788.26 344.707 795.32 371.439 776.909 383.377L625.189 481.753L576.545 435.047L714.783 305.363C731.498 289.682 760.585 301.106 760.245 323.218L760.06 335.274Z" fill="#9CDA82" stroke="#332C2C" stroke-width="13"/>
<line x1="665.88" y1="369.681" x2="656.475" y2="448.046" stroke="#332C2C" stroke-opacity="0.1" stroke-width="30" stroke-linecap="round"/>
<path d="M163.672 341.319L169.595 340.688L169.718 335.188C170.183 314.312 198.015 304.412 213.221 319.714L338.532 445.816L294.58 496.323L137.343 386.585C118.331 373.316 126.867 345.24 150.686 342.703L163.672 341.319Z" fill="#9CDA82" stroke="#332C2C" stroke-width="13"/>
<line x1="239.104" y1="436.855" x2="229.453" y2="346.508" stroke="#332C2C" stroke-opacity="0.1" stroke-width="30" stroke-linecap="round"/>
<path d="M396.843 148.041C396.843 171.836 376.654 191.583 351.175 191.583C325.695 191.583 305.506 171.836 305.506 148.041C305.506 124.246 325.695 104.5 351.175 104.5C376.654 104.5 396.843 124.246 396.843 148.041Z" fill="#9CDA82" stroke="#332C2C" stroke-width="13"/>
<ellipse cx="448.829" cy="367.942" rx="214.663" ry="212.507" fill="#9CDA82"/>
<path d="M657.839 363.076C657.839 479.748 564.558 574.178 449.676 574.178C334.631 574.178 237.339 479.585 237.339 363.076C237.339 246.468 334.731 149.409 449.676 149.409C564.461 149.409 657.839 246.305 657.839 363.076Z" fill="#9CDA82" stroke="#332C2C" stroke-width="13"/>
<path d="M433.252 143.57C428.841 114.902 431.781 134.014 428.841 114.902" stroke="#332C2C" stroke-width="10" stroke-linecap="round"/>
<path d="M257.63 361.678C225.275 344.654 246.845 356.004 225.275 344.653" stroke="#332C2C" stroke-width="10" stroke-linecap="round"/>
<path d="M595.008 155.435C566.958 180.562 585.658 163.811 566.958 180.562" stroke="#332C2C" stroke-width="10" stroke-linecap="round"/>
<path d="M287.787 614.816C259.737 639.943 278.437 623.192 259.737 639.943" stroke="#332C2C" stroke-width="10" stroke-linecap="round"/>
<path d="M521.772 318.112C493.722 343.238 512.422 326.488 493.722 343.238" stroke="#332C2C" stroke-width="12" stroke-linecap="round"/>
<path d="M392.05 344.826C364.401 319.325 364.401 319.324 364.401 319.324" stroke="#332C2C" stroke-width="12" stroke-linecap="round"/>
<path d="M614.556 520.331C582.2 503.307 603.771 514.657 582.201 503.307" stroke="#332C2C" stroke-width="10" stroke-linecap="round"/>
<path d="M645.544 216.567C612.685 232.276 634.591 221.804 612.685 232.276" stroke="#332C2C" stroke-width="10" stroke-linecap="round"/>
<path d="M680.184 363.22C646.132 375.134 668.833 367.192 646.132 375.134" stroke="#332C2C" stroke-width="10" stroke-linecap="round"/>
<path d="M647.35 547.712C613.299 559.627 636 551.684 613.298 559.627" stroke="#332C2C" stroke-width="10" stroke-linecap="round"/>
<path d="M259.326 498.268C225.274 510.182 247.975 502.24 225.274 510.182" stroke="#332C2C" stroke-width="10" stroke-linecap="round"/>
<path d="M303.511 465.566C286.091 429.985 297.704 453.706 286.091 429.985" stroke="#332C2C" stroke-width="10" stroke-linecap="round"/>
<path d="M293.128 234.993C278.69 197.7 288.315 222.562 278.69 197.7" stroke="#332C2C" stroke-width="10" stroke-linecap="round"/>
<path d="M232.933 382.896H663.078L591.6 699.579H305.688L232.933 382.896Z" fill="#9CDA82"/>
<path d="M503.059 158.5C605.105 296.531 611.009 535.783 503.059 699.579" stroke="#332C2C" stroke-width="13" stroke-linecap="round"/>
<path d="M513.774 163C616.126 298.204 622.048 532.558 513.774 693" stroke="#332C2C" stroke-opacity="0.1" stroke-width="30" stroke-linecap="round"/>
<path d="M386.119 701.272L390.164 706.358L400.339 698.261L396.293 693.176L386.119 701.272ZM395.846 162.589C398.36 160.025 398.32 155.91 395.758 153.397C393.195 150.885 389.08 150.927 386.566 153.491L395.846 162.589ZM396.293 693.176C342.969 626.148 316.023 520.656 316.101 417.696C316.178 314.592 343.338 216.147 395.846 162.589L386.566 153.491C330.581 210.595 303.18 313.162 303.101 417.693C303.022 522.369 330.322 631.138 386.119 701.272L396.293 693.176Z" fill="#332C2C"/>
<ellipse cx="363.091" cy="387.592" rx="24.7688" ry="25.4717" fill="#F96591"/>
<ellipse cx="528.217" cy="384.681" rx="24.7688" ry="25.4717" fill="#F96591"/>
<path d="M409.876 381.848C412.854 406.9 447.754 444.28 471.513 398.89C493.131 357.592 433.362 370.522 414.948 375.329C411.756 376.162 409.511 378.778 409.876 381.848Z" fill="#FF7B7B" stroke="#332C2C" stroke-width="10" stroke-linecap="round"/>
<path d="M374.523 359.22C374.523 333.558 374.522 350.666 374.523 333.558" stroke="#332C2C" stroke-width="15" stroke-linecap="round"/>
<path d="M511.07 359.209C511.069 333.547 511.069 350.655 511.07 333.547" stroke="#332C2C" stroke-width="15" stroke-linecap="round"/>
<path d="M598 571.258C568.624 591.113 583.103 577.877 563.519 591.113" stroke="#332C2C" stroke-width="10" stroke-linecap="round"/>
<path d="M328.249 465.304C294.198 477.219 316.899 469.276 294.198 477.218" stroke="#332C2C" stroke-width="10" stroke-linecap="round"/>
<path d="M368.615 696.49L378.157 708.059L401.304 688.962L391.762 677.394L368.615 696.49ZM390.737 177.604C396.644 171.792 396.724 162.295 390.916 156.391C385.108 150.487 375.611 150.412 369.704 156.223L390.737 177.604ZM391.762 677.394C340.175 614.853 313.517 515.397 313.6 417.354C313.683 318.992 340.634 226.894 390.737 177.604L369.704 156.223C311.307 213.672 283.686 315.448 283.6 417.345C283.513 519.562 311.09 626.751 368.615 696.49L391.762 677.394Z" fill="#332C2C" fill-opacity="0.1"/>
<path d="M657.972 380.54L595.439 693.146C594.692 696.885 591.408 699.577 587.595 699.577H315.566C311.987 699.577 308.844 697.2 307.869 693.757L272.501 568.903L246.973 451.177L236.762 380.54" stroke="#332C2C" stroke-width="13" stroke-linecap="round"/>
<path d="M646.125 631.991H249.396C249.396 631.991 258.355 825.956 318.505 833.275C418.816 845.482 438.803 846.98 579.578 833.275C624.369 828.915 646.125 631.991 646.125 631.991Z" fill="url(#paint0_linear_454_553)" stroke="#332C2C" stroke-width="13"/>
<path d="M227 660.41C227 638.286 245.278 620.534 267.393 621.18L452.879 626.598L632.593 621.211C654.711 620.548 673 638.298 673 660.425V660.425C673 682.092 655.435 699.657 633.768 699.657H452.879H266.247C244.571 699.657 227 682.086 227 660.41V660.41Z" fill="#956D6D" stroke="#332C2C" stroke-width="13" stroke-linecap="round"/>
<defs>
<linearGradient id="paint0_linear_454_553" x1="449.041" y1="631.991" x2="449.041" y2="833.275" gradientUnits="userSpaceOnUse">
<stop stop-color="#956D6D"/>
<stop offset="0.182979" stop-color="#311A1A"/>
<stop offset="0.361702" stop-color="#795252"/>
<stop offset="0.974468" stop-color="#864C4C"/>
</linearGradient>
</defs>
</svg>
