<svg  viewBox="0 0 900 900" fill="none" xmlns="http://www.w3.org/2000/svg">
<path d="M774.289 289.443L774.207 295.032L779.961 295.866L782.661 296.257C805.893 299.622 813.097 328.501 793.934 341.443L631.08 451.425L578.942 399.284L730.005 251.68C746.426 235.635 774.912 247.174 774.579 269.736L774.289 289.443Z" fill="#9CDA82" stroke="#332C2C" stroke-width="13"/>
<path d="M178.013 607.235L176.265 601.313L170.846 602.281L169.348 602.548C147.9 606.378 131.809 578.852 144.298 559.695L251.578 395.139L313.591 432.471L228.647 632.037C219.504 653.517 190.623 649.973 183.703 626.521L178.013 607.235Z" fill="#9CDA82" stroke="#332C2C" stroke-width="13"/>
<path d="M389.964 83.129C389.964 109.98 368.175 131.758 341.284 131.758C314.393 131.758 292.604 109.98 292.604 83.129C292.604 56.2776 314.393 34.5 341.284 34.5C368.175 34.5 389.964 56.2776 389.964 83.129Z" fill="#9CDA82" stroke="#332C2C" stroke-width="13"/>
<ellipse cx="444.576" cy="325.388" rx="227.055" ry="234.113" fill="#9CDA82"/>
<path d="M666.027 320.027C666.027 449.171 566.953 553.252 445.472 553.252C323.831 553.252 220.502 449.005 220.502 320.027C220.502 190.948 323.929 83.9746 445.472 83.9746C566.857 83.9746 666.027 190.781 666.027 320.027Z" fill="#9CDA82" stroke="#332C2C" stroke-width="13"/>
<path d="M428.099 78.2028C423.433 46.6199 426.543 67.6753 423.433 46.6198" stroke="#332C2C" stroke-width="10" stroke-linecap="round"/>
<path d="M242.339 318.486C208.116 299.731 230.931 312.235 208.116 299.731" stroke="#332C2C" stroke-width="10" stroke-linecap="round"/>
<path d="M599.193 91.2749C569.524 118.956 589.304 100.502 569.524 118.956" stroke="#332C2C" stroke-width="10" stroke-linecap="round"/>
<path d="M274.237 597.361C244.568 625.043 264.348 606.589 244.568 625.042" stroke="#332C2C" stroke-width="10" stroke-linecap="round"/>
<path d="M493.784 307.405C517.035 273.027 532.033 307.05 532.033 307.05" stroke="#332C2C" stroke-width="12" stroke-linecap="round"/>
<path d="M349.416 307.254C372.453 272.719 387.662 306.64 387.662 306.64" stroke="#332C2C" stroke-width="12" stroke-linecap="round"/>
<path d="M619.869 493.27C585.646 474.515 608.461 487.019 585.646 474.515" stroke="#332C2C" stroke-width="10" stroke-linecap="round"/>
<path d="M652.645 158.622C617.89 175.929 641.06 164.392 617.89 175.928" stroke="#332C2C" stroke-width="10" stroke-linecap="round"/>
<path d="M689.286 320.185C653.268 333.311 677.28 324.561 653.268 333.311" stroke="#332C2C" stroke-width="10" stroke-linecap="round"/>
<path d="M654.557 523.435C618.539 536.561 642.551 527.811 618.539 536.561" stroke="#332C2C" stroke-width="10" stroke-linecap="round"/>
<path d="M244.132 468.963C208.115 482.089 232.127 473.339 208.115 482.089" stroke="#332C2C" stroke-width="10" stroke-linecap="round"/>
<path d="M290.869 432.937C272.443 393.738 284.727 419.871 272.444 393.738" stroke="#332C2C" stroke-width="10" stroke-linecap="round"/>
<path d="M279.887 178.921C264.615 137.836 274.796 165.227 264.616 137.836" stroke="#332C2C" stroke-width="10" stroke-linecap="round"/>
<path d="M216.216 341.862H671.192L595.588 690.741H293.171L216.216 341.862Z" fill="#9CDA82"/>
<path d="M514 104C621.534 249.918 627.755 502.844 514 676" stroke="#332C2C" stroke-opacity="0.1" stroke-width="30" stroke-linecap="round"/>
<path d="M359.846 686.238L369.155 697.993L392.679 679.36L383.37 667.604L359.846 686.238ZM382.374 114.407C388.162 108.476 388.048 98.9788 382.121 93.1952C376.194 87.4116 366.697 87.5311 360.91 93.4623L382.374 114.407ZM383.37 667.604C328.501 598.31 300.221 488.237 300.309 379.876C300.397 271.181 328.986 169.118 382.374 114.407L360.91 93.4623C299.534 156.36 270.4 267.915 270.309 379.872C270.218 492.165 299.304 609.78 359.846 686.238L383.37 667.604Z" fill="#332C2C" fill-opacity="0.1"/>
<ellipse cx="353.888" cy="344.061" rx="26.1987" ry="28.0615" fill="#F96591"/>
<ellipse cx="528.546" cy="344.061" rx="26.1987" ry="28.0615" fill="#F96591"/>
<path d="M405.333 340.34C408.195 367.939 445.326 409.708 470.569 359.482C493.577 313.7 429.419 328.41 410.377 333.624C407.218 334.489 405.006 337.186 405.333 340.34Z" fill="#FF7B7B" stroke="#332C2C" stroke-width="13" stroke-linecap="round"/>
<path d="M602.357 549.374C571.286 571.249 586.6 556.666 565.886 571.249" stroke="#332C2C" stroke-width="10" stroke-linecap="round"/>
<path d="M317.035 432.648C281.018 445.774 305.029 437.024 281.018 445.774" stroke="#332C2C" stroke-width="10" stroke-linecap="round"/>
<path d="M378.46 692.095L382.404 697.259L392.737 689.363L388.793 684.2L378.46 692.095ZM388.358 98.5977C390.819 95.9828 390.696 91.8692 388.083 89.4096C385.47 86.95 381.356 87.0759 378.895 89.6907L388.358 98.5977ZM388.793 684.2C332.261 610.189 303.728 493.764 303.81 380.198C303.892 266.483 332.65 157.779 388.358 98.5977L378.895 89.6907C319.845 152.423 290.893 265.166 290.81 380.198C290.726 495.379 319.571 614.999 378.46 692.095L388.793 684.2Z" fill="#332C2C"/>
<path d="M501.936 94.6514C609.873 246.715 616.118 510.292 501.936 690.742" stroke="#332C2C" stroke-width="13" stroke-linecap="round"/>
<path d="M318.259 90.0173C313.821 107.389 311.677 113.035 303.559 113.035C295.44 113.035 291.79 106.086 288.858 90.0173C284.658 67 295.44 67 303.559 67C311.677 67 324.139 67 318.259 90.0173Z" fill="#FF7B7B" stroke="#332C2C" stroke-width="10"/>
<path d="M286.311 140.334C290.606 122.963 292.681 117.317 300.537 117.317C308.394 117.317 311.926 124.266 314.763 140.334C318.828 163.352 308.394 163.352 300.537 163.352C292.681 163.352 280.621 163.352 286.311 140.334Z" fill="#FF7B7B" stroke="#332C2C" stroke-width="10"/>
<path d="M337.214 113.049C322.379 122.043 317.067 124.456 311.396 118.549C305.725 112.642 307.87 105.098 316.677 91.658C329.293 72.4064 336.824 80.2507 342.495 86.1576C348.167 92.0644 356.872 101.131 337.214 113.049Z" fill="#FF7B7B" stroke="#332C2C" stroke-width="10"/>
<path d="M273.798 113.519C290.363 108.831 296.093 107.932 300.103 115.166C304.114 122.401 300.167 129.11 288.32 139.717C271.35 154.912 266.025 145.305 262.014 138.071C258.004 130.836 251.849 119.732 273.798 113.519Z" fill="#FF7B7B" stroke="#332C2C" stroke-width="10"/>
<path d="M292.403 90.3556C301.039 105.808 303.355 111.34 297.684 117.247C292.013 123.154 284.769 120.92 271.865 111.746C253.382 98.6063 260.913 90.762 266.584 84.8551C272.256 78.9483 280.961 69.8816 292.403 90.3556Z" fill="#FF7B7B" stroke="#332C2C" stroke-width="10"/>
<path d="M319.024 142.957C306.843 130.36 303.231 125.64 307.241 118.406C311.251 111.172 318.803 111.377 333.546 116.759C354.665 124.469 349.34 134.076 345.33 141.31C341.32 148.545 335.164 159.649 319.024 142.957Z" fill="#FF7B7B" stroke="#332C2C" stroke-width="10"/>
<path d="M303.852 134.093C313.899 134.093 321.7 125.669 321.7 115.711C321.7 105.753 313.899 97.3289 303.852 97.3289C293.805 97.3289 286.003 105.753 286.003 115.711C286.003 125.669 293.805 134.093 303.852 134.093Z" fill="#F3FF66" stroke="#332C2C" stroke-width="10"/>
<path d="M665.792 339.266L599.536 684.249C598.812 688.016 595.516 690.74 591.679 690.74H303.337C299.727 690.74 296.564 688.322 295.617 684.839L258.069 546.78L231.067 417.085L220.267 339.266" stroke="#332C2C" stroke-width="13" stroke-linecap="round"/>
<line x1="677.345" y1="321.925" x2="654.925" y2="421.655" stroke="#332C2C" stroke-opacity="0.1" stroke-width="30" stroke-linecap="round"/>
<line x1="223.646" y1="458.08" x2="255.08" y2="563.335" stroke="#332C2C" stroke-opacity="0.1" stroke-width="30" stroke-linecap="round"/>
<path d="M646.125 631.991H249.396C249.396 631.991 258.355 825.956 318.505 833.275C418.816 845.482 438.803 846.98 579.578 833.275C624.369 828.915 646.125 631.991 646.125 631.991Z" fill="url(#paint0_linear_454_553)" stroke="#332C2C" stroke-width="13"/>
<path d="M227 660.41C227 638.286 245.278 620.534 267.393 621.18L452.879 626.598L632.593 621.211C654.711 620.548 673 638.298 673 660.425V660.425C673 682.092 655.435 699.657 633.768 699.657H452.879H266.247C244.571 699.657 227 682.086 227 660.41V660.41Z" fill="#956D6D" stroke="#332C2C" stroke-width="13" stroke-linecap="round"/>
<defs>
<linearGradient id="paint0_linear_454_553" x1="449.041" y1="631.991" x2="449.041" y2="833.275" gradientUnits="userSpaceOnUse">
<stop stop-color="#956D6D"/>
<stop offset="0.182979" stop-color="#311A1A"/>
<stop offset="0.361702" stop-color="#795252"/>
<stop offset="0.974468" stop-color="#864C4C"/>
</linearGradient>
</defs>
</svg>
