<svg  viewBox="0 0 900 900" fill="none" xmlns="http://www.w3.org/2000/svg">
<path d="M402.328 204.041C402.328 225.569 385.61 242.582 365.519 242.582C345.428 242.582 328.71 225.569 328.71 204.041C328.71 182.513 345.428 165.5 365.519 165.5C385.61 165.5 402.328 182.513 402.328 204.041Z" fill="#9CDA82" stroke="#332C2C" stroke-width="13"/>
<ellipse cx="446.589" cy="401.969" rx="178.207" ry="191.273" fill="#9CDA82"/>
<path d="M618.998 397.589C618.998 502.76 541.558 586.947 447.291 586.947C352.869 586.947 272.12 502.591 272.12 397.589C272.12 292.484 352.964 205.921 447.291 205.921C541.465 205.921 618.998 292.315 618.998 397.589Z" fill="#9CDA82" stroke="#332C2C" stroke-width="13"/>
<path d="M433.657 200.016C429.995 174.212 432.436 191.415 429.995 174.212" stroke="#332C2C" stroke-width="10" stroke-linecap="round"/>
<path d="M287.861 396.33C261.001 381.007 278.908 391.223 261.001 381.007" stroke="#332C2C" stroke-width="10" stroke-linecap="round"/>
<path d="M567.942 210.696C544.656 233.312 560.18 218.235 544.655 233.312" stroke="#332C2C" stroke-width="10" stroke-linecap="round"/>
<path d="M312.896 624.174C289.61 646.79 305.135 631.713 289.61 646.79" stroke="#332C2C" stroke-width="10" stroke-linecap="round"/>
<path d="M584.17 539.13C557.309 523.807 575.216 534.023 557.309 523.807" stroke="#332C2C" stroke-width="10" stroke-linecap="round"/>
<path d="M609.894 265.72C582.616 279.859 600.802 270.433 582.616 279.859" stroke="#332C2C" stroke-width="10" stroke-linecap="round"/>
<path d="M638.652 397.718C610.383 408.442 629.229 401.293 610.383 408.442" stroke="#332C2C" stroke-width="10" stroke-linecap="round"/>
<path d="M611.394 563.776C583.126 574.5 601.972 567.351 583.126 574.499" stroke="#332C2C" stroke-width="10" stroke-linecap="round"/>
<path d="M289.268 519.271C261 529.995 279.846 522.847 261 529.995" stroke="#332C2C" stroke-width="10" stroke-linecap="round"/>
<path d="M325.95 489.838C311.488 457.812 321.129 479.163 311.489 457.812" stroke="#332C2C" stroke-width="10" stroke-linecap="round"/>
<path d="M317.33 282.304C305.344 248.738 313.335 271.116 305.344 248.738" stroke="#332C2C" stroke-width="10" stroke-linecap="round"/>
<path d="M267.358 415.428H624.451L565.112 700.467H327.757L267.358 415.428Z" fill="#9CDA82"/>
<path d="M506.833 221.518C571.356 343.699 575.089 555.479 506.833 700.467" stroke="#332C2C" stroke-width="10" stroke-linecap="round"/>
<path d="M526.682 233C591.462 351.622 585.208 556.235 516.681 697" stroke="#010000" stroke-opacity="0.1" stroke-width="30" stroke-linecap="round"/>
<path d="M394.719 701.308L397.676 705.337L405.74 699.417L402.783 695.387L394.719 701.308ZM402.459 216.393C404.311 214.344 404.154 211.182 402.106 209.331C400.059 207.479 396.897 207.64 395.044 209.689L402.459 216.393ZM402.783 695.387C358.352 634.836 335.94 539.607 336.005 446.749C336.07 353.772 358.658 264.831 402.459 216.393L395.044 209.689C348.776 260.855 326.07 352.839 326.005 446.75C325.94 540.781 348.562 638.403 394.719 701.308L402.783 695.387Z" fill="#333333"/>
<path d="M375.738 688C297.298 571.983 297.719 325.574 375.682 232" stroke="#332C2C" stroke-opacity="0.1" stroke-width="30" stroke-linecap="round"/>
<ellipse cx="375.411" cy="419.655" rx="20.5623" ry="22.9265" fill="#F96591"/>
<ellipse cx="512.493" cy="417.035" rx="20.5623" ry="22.9265" fill="#F96591"/>
<path d="M414.346 415.268C417.389 437.799 445.923 470.207 465.42 429.824C483.063 393.279 435.401 403.912 419.262 408.393C416.13 409.262 413.911 412.047 414.346 415.268Z" fill="#FF7B7B" stroke="#332C2C" stroke-width="8" stroke-linecap="round"/>
<path d="M384.902 394.118C384.902 371.02 384.902 386.419 384.902 371.02" stroke="#332C2C" stroke-width="15" stroke-linecap="round"/>
<path d="M498.258 394.108C498.258 371.01 498.258 386.409 498.258 371.01" stroke="#332C2C" stroke-width="15" stroke-linecap="round"/>
<path d="M570.426 584.968C546.039 602.84 558.059 590.926 541.8 602.84" stroke="#332C2C" stroke-width="10" stroke-linecap="round"/>
<path d="M346.487 489.602C318.218 500.326 337.064 493.177 318.218 500.326" stroke="#332C2C" stroke-width="10" stroke-linecap="round"/>
<path d="M620.212 413.308L568.44 693.917C567.74 697.711 564.431 700.465 560.573 700.465H337.114C333.475 700.465 330.294 698.009 329.374 694.487L300.207 582.849L279.014 476.887L270.537 413.308" stroke="#332C2C" stroke-width="13" stroke-linecap="round"/>
<path d="M646.125 631.991H249.396C249.396 631.991 258.355 825.956 318.505 833.275C418.816 845.482 438.803 846.98 579.578 833.275C624.369 828.915 646.125 631.991 646.125 631.991Z" fill="url(#paint0_linear_454_553)" stroke="#332C2C" stroke-width="13"/>
<path d="M227 660.41C227 638.286 245.278 620.534 267.393 621.18L452.879 626.598L632.593 621.211C654.711 620.548 673 638.298 673 660.425V660.425C673 682.092 655.435 699.657 633.768 699.657H452.879H266.247C244.571 699.657 227 682.086 227 660.41V660.41Z" fill="#956D6D" stroke="#332C2C" stroke-width="13" stroke-linecap="round"/>
<defs>
<linearGradient id="paint0_linear_454_553" x1="449.041" y1="631.991" x2="449.041" y2="833.275" gradientUnits="userSpaceOnUse">
<stop stop-color="#956D6D"/>
<stop offset="0.182979" stop-color="#311A1A"/>
<stop offset="0.361702" stop-color="#795252"/>
<stop offset="0.974468" stop-color="#864C4C"/>
</linearGradient>
</defs>
</svg>
