<svg  viewBox="0 0 900 900" fill="none" xmlns="http://www.w3.org/2000/svg">
<path d="M646.125 631.991H249.396C249.396 631.991 258.355 825.956 318.505 833.275C418.816 845.482 438.803 846.98 579.578 833.275C624.369 828.915 646.125 631.991 646.125 631.991Z" fill="url(#paint0_linear_454_553)" stroke="#332C2C" stroke-width="13"/>
<path d="M227 660.41C227 638.286 245.278 620.534 267.393 621.18L452.879 626.598L632.593 621.211C654.711 620.548 673 638.298 673 660.425V660.425C673 682.092 655.435 699.657 633.768 699.657H452.879H266.247C244.571 699.657 227 682.086 227 660.41V660.41Z" fill="#956D6D" stroke="#332C2C" stroke-width="13" stroke-linecap="round"/>
<path d="M448.15 400C422.746 400 406.292 410.347 393.374 428.801C391.03 432.149 391.753 436.739 395.022 439.203L408.751 449.552C412.053 452.041 416.75 451.459 419.335 448.24C427.307 438.31 433.221 432.594 445.673 432.594C455.465 432.594 467.575 438.858 467.575 448.297C467.575 455.433 461.65 459.097 451.982 464.486C440.708 470.77 425.789 478.59 425.789 498.153V501.25C425.789 505.444 429.209 508.844 433.428 508.844H456.493C460.712 508.844 464.131 505.444 464.131 501.25V499.423C464.131 485.862 504 485.297 504 448.6C504 420.964 475.165 400 448.15 400ZM444.961 518.165C432.804 518.165 422.914 527.997 422.914 540.083C422.914 552.168 432.804 562 444.961 562C457.117 562 467.007 552.168 467.007 540.082C467.007 527.997 457.117 518.165 444.961 518.165Z" fill="white" stroke="#332C2C" stroke-width="10"/>
<defs>
<linearGradient id="paint0_linear_454_553" x1="449.041" y1="631.991" x2="449.041" y2="833.275" gradientUnits="userSpaceOnUse">
<stop stop-color="#956D6D"/>
<stop offset="0.182979" stop-color="#311A1A"/>
<stop offset="0.361702" stop-color="#795252"/>
<stop offset="0.974468" stop-color="#864C4C"/>
</linearGradient>
</defs>
</svg>
